<svg xmlns:dc="http://purl.org/dc/elements/1.1/" xmlns:cc="http://creativecommons.org/ns#" xmlns:rdf="http://www.w3.org/1999/02/22-rdf-syntax-ns#" xmlns:svg="http://www.w3.org/2000/svg" xmlns="http://www.w3.org/2000/svg" xmlns:xlink="http://www.w3.org/1999/xlink" id="svg277008" viewBox="0 0 1024 768" height="768px" width="1024px" version="1.1">
  <metadata id="metadata277014">
    <rdf:rdf>
      <cc:work rdf:about="">
        <dc:format>image/svg+xml</dc:format>
        <dc:type rdf:resource="http://purl.org/dc/dcmitype/StillImage"></dc:type>
      </cc:work>
    </rdf:rdf>
  </metadata>
  <defs id="defs277012"></defs>
  <linearGradient spreadMethod="pad" y2="30%" x2="-10%" y1="120%" x1="30%" id="3d_gradient2-logo-027188a6-0a3d-448f-abd9-4cdf7c4919ea">
    <stop id="stop276989" stop-opacity="1" stop-color="#ffffff" offset="0%"></stop>
    <stop id="stop276991" stop-opacity="1" stop-color="#000000" offset="100%"></stop>
  </linearGradient>
  <linearGradient gradientTransform="rotate(-30)" spreadMethod="pad" y2="30%" x2="-10%" y1="120%" x1="30%" id="3d_gradient3-logo-027188a6-0a3d-448f-abd9-4cdf7c4919ea">
    <stop id="stop276994" stop-opacity="1" stop-color="#ffffff" offset="0%"></stop>
    <stop id="stop276996" stop-opacity="1" stop-color="#cccccc" offset="50%"></stop>
    <stop id="stop276998" stop-opacity="1" stop-color="#000000" offset="100%"></stop>
  </linearGradient>
  <g id="logo-group">
    <image xlink:href="" id="container" x="272" y="144" width="480" height="480" style="display: none;" transform="translate(0 0)"></image>
    <g id="logo-center" transform="translate(-1.1368683772161603e-13 0)">
      <image xlink:href="" id="icon_container" style="display: none;" x="0" y="0"></image>
      <g id="slogan" style="font-style:normal;font-weight:400;font-size:32px;line-height:1;font-family:Raleway;font-variant-ligatures:none;text-align:center;text-anchor:middle" transform="translate(0 0)"></g>
      <g id="title" style="font-style:normal;font-weight:700;font-size:72px;line-height:1;font-family:'Comfortaa Bold Alt2';font-variant-ligatures:none;text-align:center;text-anchor:middle" transform="translate(0 0)">
        <path id="path277017" style="font-style:normal;font-weight:700;font-size:72px;line-height:1;font-family:'Comfortaa Bold Alt2';font-variant-ligatures:none;text-align:center;text-anchor:middle" d="m 340.89706,-1.08 c 0.72,-0.72 1.08,-1.584 1.08,-2.664 v -15.768 h 10.656 c 3.528,0 6.696,-0.72 9.504,-2.304 2.808,-1.512 4.968,-3.672 6.552,-6.408 1.584,-2.736 2.376,-5.832 2.376,-9.36 0,-3.6 -0.792,-6.768 -2.376,-9.648 -1.584,-2.808 -3.744,-5.04 -6.552,-6.624 -2.808,-1.584 -5.976,-2.376 -9.504,-2.376 h -14.4 c -1.08,0 -1.944,0.36 -2.664,1.08 -0.72,0.72 -1.08,1.584 -1.08,2.664 v 48.744 c 0,1.08 0.36,1.944 1.08,2.664 0.72,0.72 1.584,1.08 2.664,1.08 1.08,0 1.944,-0.36 2.664,-1.08 z m 19.8,-28.44 c -2.16,2.088 -4.824,3.096 -8.064,3.096 h -10.656 V -49.32 h 10.656 c 3.24,0 5.904,1.152 8.064,3.312 2.088,2.232 3.168,5.04 3.168,8.424 0,3.312 -1.08,5.976 -3.168,8.064 z" stroke-width="0" stroke-linejoin="miter" stroke-miterlimit="2" fill="#54130e" stroke="#54130e" transform="translate(0 297.352) translate(312.6851250000001 50) scale(1) translate(-334.48906 56.232)"></path>
        <path id="path277019" style="font-style:normal;font-weight:700;font-size:72px;line-height:1;font-family:'Comfortaa Bold Alt2';font-variant-ligatures:none;text-align:center;text-anchor:middle" d="m 400.58844,-40.464 c -6.048,0 -11.16,2.16 -15.48,6.408 -4.248,4.248 -6.336,9.36 -6.336,15.408 v 15.192 c 0,1.008 0.288,1.8 1.008,2.448 0.648,0.72 1.44,1.008 2.448,1.008 0.936,0 1.728,-0.288 2.376,-1.008 0.72,-0.648 1.08,-1.44 1.08,-2.448 v -15.192 c 0,-4.104 1.44,-7.632 4.32,-10.512 2.952,-2.952 6.48,-4.392 10.584,-4.392 0.936,0 1.728,-0.36 2.448,-1.008 0.648,-0.72 1.008,-1.512 1.008,-2.448 0,-0.936 -0.36,-1.8 -1.008,-2.448 -0.72,-0.648 -1.512,-1.008 -2.448,-1.008 z" stroke-width="0" stroke-linejoin="miter" stroke-miterlimit="2" fill="#641f14" stroke="#641f14" transform="translate(0 297.352) translate(361.9685050000001 65.768) scale(1) translate(-378.77244 40.464)"></path>
        <path id="path277021" style="font-style:normal;font-weight:700;font-size:72px;line-height:1;font-family:'Comfortaa Bold Alt2';font-variant-ligatures:none;text-align:center;text-anchor:middle" d="m 428.61556,0.288 c 5.544,0 10.224,-1.944 14.112,-5.832 3.888,-3.888 5.904,-8.568 5.904,-14.112 0,-5.544 -2.016,-10.224 -5.904,-14.112 -3.888,-3.888 -8.568,-5.904 -14.112,-5.904 -5.544,0 -10.224,2.016 -14.112,5.904 -3.888,3.888 -5.832,8.568 -5.832,14.112 0,5.544 1.944,10.224 5.832,14.112 3.888,3.888 8.568,5.832 14.112,5.832 z m 0,-33.048 c 3.6,0 6.696,1.296 9.288,3.816 2.52,2.592 3.816,5.688 3.816,9.288 0,3.6 -1.296,6.696 -3.816,9.216 -2.592,2.592 -5.688,3.816 -9.288,3.816 -3.6,0 -6.696,-1.224 -9.216,-3.816 -2.592,-2.52 -3.816,-5.616 -3.816,-9.216 0,-3.6 1.224,-6.696 3.816,-9.288 2.52,-2.52 5.616,-3.816 9.216,-3.816 z" stroke-width="0" stroke-linejoin="miter" stroke-miterlimit="2" fill="#732a19" stroke="#732a19" transform="translate(0 297.352) translate(396.8676250000001 66.56) scale(1) translate(-408.67156 39.672)"></path>
        <path id="path277023" style="font-style:normal;font-weight:700;font-size:72px;line-height:1;font-family:'Comfortaa Bold Alt2';font-variant-ligatures:none;text-align:center;text-anchor:middle" d="m 447.96781,17.064 c 5.04,0 9.432,-1.8 13.032,-5.328 3.528,-3.6 5.328,-7.992 5.328,-13.032 v -34.416 c 0,-1.008 -0.36,-1.872 -1.008,-2.52 -0.72,-0.72 -1.584,-1.08 -2.592,-1.08 -0.648,0 -1.224,0.144 -1.8,0.504 -0.504,0.288 -1.008,0.72 -1.296,1.296 -0.288,0.504 -0.504,1.152 -0.504,1.8 v 34.416 c 0,3.096 -1.08,5.688 -3.24,7.92 -2.232,2.16 -4.824,3.24 -7.92,3.24 -1.008,0 -1.872,0.36 -2.592,1.08 -0.648,0.72 -1.008,1.584 -1.008,2.52 0,1.008 0.36,1.872 1.008,2.592 0.72,0.72 1.584,1.008 2.592,1.008 z m 18.144,-70.92 c -0.936,-0.936 -2.016,-1.44 -3.312,-1.44 -1.296,0 -2.448,0.504 -3.384,1.44 -0.936,0.936 -1.368,2.016 -1.368,3.312 0,1.296 0.432,2.448 1.368,3.384 0.936,0.936 2.088,1.368 3.384,1.368 1.296,0 2.376,-0.432 3.312,-1.368 0.936,-0.936 1.44,-2.088 1.44,-3.384 0,-1.296 -0.504,-2.376 -1.44,-3.312 z" stroke-width="0" stroke-linejoin="miter" stroke-miterlimit="2" fill="#83361f" stroke="#83361f" transform="translate(0 297.352) translate(437.5638750000001 50.936) scale(1) translate(-444.36781 55.296)"></path>
        <path id="path277025" style="font-style:normal;font-weight:700;font-size:72px;line-height:1;font-family:'Comfortaa Bold Alt2';font-variant-ligatures:none;text-align:center;text-anchor:middle" d="m 494.26719,0.288 c 4.752,0 8.928,-1.44 12.6,-4.464 0.792,-0.576 1.152,-1.368 1.296,-2.304 0.072,-1.008 -0.144,-1.8 -0.792,-2.592 -0.576,-0.72 -1.368,-1.152 -2.304,-1.224 -0.936,-0.072 -1.8,0.144 -2.52,0.792 -2.448,1.944 -5.184,2.88 -8.28,2.88 -3.6,0 -6.696,-1.224 -9.216,-3.816 -2.592,-2.52 -3.816,-5.616 -3.816,-9.216 0,-3.6 1.224,-6.696 3.816,-9.288 2.52,-2.52 5.616,-3.816 9.216,-3.816 2.952,0 5.616,0.936 7.992,2.736 2.304,1.8 3.816,4.104 4.608,6.912 h -12.6 c -0.936,0 -1.8,0.36 -2.448,1.008 -0.648,0.648 -1.008,1.512 -1.008,2.448 0,0.936 0.36,1.8 1.008,2.448 0.648,0.648 1.512,1.008 2.448,1.008 h 16.56 c 0.936,0 1.728,-0.36 2.376,-1.008 0.72,-0.648 1.08,-1.512 1.08,-2.448 0,-5.544 -2.016,-10.224 -5.904,-14.112 -3.888,-3.888 -8.568,-5.904 -14.112,-5.904 -5.544,0 -10.224,2.016 -14.112,5.904 -3.888,3.888 -5.832,8.568 -5.832,14.112 0,5.544 1.944,10.224 5.832,14.112 3.888,3.888 8.568,5.832 14.112,5.832 z" stroke-width="0" stroke-linejoin="miter" stroke-miterlimit="2" fill="#924125" stroke="#924125" transform="translate(0 297.352) translate(472.5192550000001 66.56) scale(1) translate(-474.32319 39.672)"></path>
        <path id="path277027" style="font-style:normal;font-weight:700;font-size:72px;line-height:1;font-family:'Comfortaa Bold Alt2';font-variant-ligatures:none;text-align:center;text-anchor:middle" d="m 552.26769,-33.192 c -3.744,-4.32 -8.496,-6.48 -14.112,-6.48 -3.744,0 -7.128,0.864 -10.08,2.592 -3.024,1.728 -5.328,4.104 -6.984,7.128 -1.656,3.024 -2.448,6.48 -2.448,10.296 0,3.744 0.792,7.2 2.52,10.224 1.728,3.024 4.104,5.4 7.128,7.128 3.024,1.728 6.408,2.592 10.224,2.592 5.184,0 9.504,-1.584 12.96,-4.824 0.576,-0.576 0.864,-1.224 0.864,-1.944 0,-0.936 -0.504,-1.8 -1.368,-2.592 -0.576,-0.432 -1.224,-0.648 -1.872,-0.648 -0.864,0 -1.8,0.36 -2.664,1.008 -2.016,1.728 -4.68,2.52 -7.92,2.52 -2.52,0 -4.752,-0.576 -6.696,-1.728 -1.944,-1.152 -3.456,-2.736 -4.536,-4.752 -1.08,-2.016 -1.584,-4.392 -1.584,-6.984 0,-4.032 1.152,-7.344 3.456,-9.792 2.304,-2.448 5.256,-3.744 9,-3.744 1.8,0 3.384,0.36 4.824,0.936 1.44,0.576 2.736,1.512 3.96,2.808 0.72,0.864 1.656,1.296 2.808,1.296 0.576,0 1.152,-0.144 1.656,-0.504 1.008,-0.72 1.584,-1.584 1.584,-2.664 0,-0.72 -0.288,-1.296 -0.72,-1.872 z" stroke-width="0" stroke-linejoin="miter" stroke-miterlimit="2" fill="#a24d2a" stroke="#a24d2a" transform="translate(0 297.352) translate(521.8397550000001 66.56) scale(1) translate(-518.64369 39.672)"></path>
        <path id="path277029" style="font-style:normal;font-weight:700;font-size:72px;line-height:1;font-family:'Comfortaa Bold Alt2';font-variant-ligatures:none;text-align:center;text-anchor:middle" d="m 580.38819,-7.2 c -2.088,0 -3.888,-0.72 -5.328,-2.232 -1.512,-1.44 -2.232,-3.24 -2.232,-5.328 v -16.92 h 6.408 c 0.864,0 1.656,-0.288 2.304,-0.936 0.576,-0.576 0.936,-1.368 0.936,-2.304 0,-0.864 -0.36,-1.656 -0.936,-2.304 -0.648,-0.576 -1.44,-0.936 -2.304,-0.936 h -6.408 v -10.152 c 0,-1.008 -0.36,-1.8 -1.08,-2.52 -0.72,-0.72 -1.512,-1.08 -2.52,-1.08 -1.008,0 -1.872,0.36 -2.592,1.08 -0.72,0.72 -1.008,1.512 -1.008,2.52 v 33.552 c 0,4.104 1.44,7.56 4.32,10.44 2.88,2.88 6.336,4.32 10.44,4.32 1.008,0 1.8,-0.288 2.52,-1.008 0.72,-0.72 1.08,-1.584 1.08,-2.592 0,-1.008 -0.36,-1.8 -1.08,-2.52 -0.72,-0.72 -1.512,-1.08 -2.52,-1.08 z" stroke-width="0" stroke-linejoin="miter" stroke-miterlimit="2" fill="#b15830" stroke="#b15830" transform="translate(0 297.352) translate(573.8242550000001 54.32) scale(1) translate(-565.62819 51.912)"></path>
        <path id="path277031" style="font-style:normal;font-weight:700;font-size:72px;line-height:1;font-family:'Comfortaa Bold Alt2';font-variant-ligatures:none;text-align:center;text-anchor:middle" d="m 650.54206,-18.576 c -0.72,-0.504 -1.584,-0.792 -2.664,-0.792 h -4.32 v -33.12 c 0,-1.008 -0.36,-1.944 -0.936,-2.664 -0.648,-0.72 -1.44,-1.08 -2.448,-1.08 -1.224,0 -2.232,0.576 -3.024,1.584 l -27.576,36.144 c -0.504,0.648 -0.72,1.368 -0.72,2.16 0,1.008 0.288,1.8 1.008,2.52 0.648,0.72 1.512,1.08 2.664,1.08 h 23.976 v 9.072 c 0,1.008 0.288,1.872 1.008,2.592 0.648,0.72 1.44,1.08 2.448,1.08 1.008,0 1.8,-0.36 2.52,-1.08 0.72,-0.72 1.08,-1.584 1.08,-2.592 v -9.072 h 4.32 c 1.008,0 1.872,-0.288 2.592,-0.936 0.72,-0.648 1.08,-1.44 1.08,-2.376 0,-1.152 -0.36,-1.944 -1.008,-2.52 z m -14.04,-0.792 h -18.144 l 18.144,-23.832 z" stroke-width="0" stroke-linejoin="miter" stroke-miterlimit="2" fill="#c16435" stroke="#c16435" transform="translate(0 297.352) translate(622.0501250000001 50) scale(1) translate(-608.85406 56.232)"></path>
        <path id="path277033" style="font-style:normal;font-weight:700;font-size:72px;line-height:1;font-family:'Comfortaa Bold Alt2';font-variant-ligatures:none;text-align:center;text-anchor:middle" d="m 692.03881,-6.264 c -0.72,-0.72 -1.656,-1.08 -2.664,-1.08 h -20.16 l 16.488,-18.72 c 1.8,-2.016 3.312,-4.176 4.536,-6.48 1.224,-2.304 1.872,-4.464 1.872,-6.624 0,-3.456 -0.72,-6.408 -2.016,-9 -1.296,-2.592 -3.168,-4.536 -5.616,-5.976 -2.448,-1.368 -5.256,-2.088 -8.424,-2.088 -3.24,0 -6.12,0.792 -8.712,2.232 -2.592,1.512 -4.608,3.528 -6.048,6.12 -1.512,2.592 -2.232,5.544 -2.232,8.712 0,1.008 0.36,1.8 1.08,2.52 0.72,0.72 1.584,1.08 2.592,1.08 1.008,0 1.872,-0.36 2.592,-1.08 0.72,-0.72 1.08,-1.512 1.08,-2.52 0,-1.8 0.36,-3.528 1.224,-5.112 0.864,-1.584 2.016,-2.808 3.528,-3.744 1.44,-0.936 3.096,-1.44 4.896,-1.44 2.736,0 4.968,0.936 6.552,2.808 1.584,1.872 2.448,4.392 2.448,7.488 0,2.592 -1.512,5.544 -4.536,9 l -20.448,23.904 c -0.72,0.72 -1.008,1.584 -1.008,2.592 0,1.008 0.288,1.872 1.008,2.592 0.72,0.72 1.584,1.08 2.664,1.08 h 26.64 c 1.008,0 1.944,-0.36 2.664,-1.08 0.72,-0.72 1.08,-1.584 1.08,-2.592 0,-1.008 -0.36,-1.872 -1.08,-2.592 z" stroke-width="0" stroke-linejoin="miter" stroke-miterlimit="2" fill="#d06f3b" stroke="#d06f3b" transform="translate(0 297.352) translate(677.2588750000001 50) scale(1) translate(-659.06281 56.232)"></path>
      </g>
      <image xlink:href="" id="icon" style="display: none;" x="0" y="0"></image>
    </g>
  </g>
</svg>
