<?xml version="1.0" encoding="UTF-8"?>
<svg width="90px" height="90px" viewBox="0 0 90 90" version="1.1" xmlns="http://www.w3.org/2000/svg" xmlns:xlink="http://www.w3.org/1999/xlink">
    <!-- Generator: Sketch 43.2 (39069) - http://www.bohemiancoding.com/sketch -->
    <title>icon-sos copy 2</title>
    <desc>Created with Sketch.</desc>
    <defs>
        <rect id="path-1" x="0" y="0" width="40.5" height="88.0233491"></rect>
        <rect id="path-3" x="0" y="0" width="40.5" height="88.0233491"></rect>
    </defs>
    <g id="SOS" stroke="none" stroke-width="1" fill="none" fill-rule="evenodd">
        <g id="icon-sos-copy-2">
            <g id="Left" transform="translate(5.000000, 0.000000)">
                <mask id="mask-2" fill="white">
                    <use xlink:href="#path-1"></use>
                </mask>
                <g id="Mask"></g>
                <g mask="url(#mask-2)" id="Oval-3">
                    <g transform="translate(0.000000, 6.846260)">
                        <g>
                            <path d="M5.07223551,65.3180686 C5.07146842,65.246066 5.07206317,65.1682151 5.07425545,65.0845681 C5.10025534,64.0925355 5.33717481,62.675931 5.82340732,60.5925513 C6.10525469,59.3849087 7.35348043,54.4769321 7.56348498,53.618428 C9.37873361,46.1976439 10.2984169,40.3432937 10.2984169,33.9932749 C10.2984169,16.3421882 22.7286345,4.40024919 40.5587349,4.40024919 C57.5895241,4.40024919 70.5042169,18.5947583 70.5042169,37.0540554 C70.5042169,39.6130195 70.7336516,41.2348277 71.8744992,48.0051419 C72.1355044,49.5540671 72.3095853,50.6293928 72.4684719,51.6995515 C73.2352371,56.8639915 73.3498432,60.3726651 72.7302606,62.6996442 C72.2075979,64.6626193 71.3875719,65.323952 69.0507516,65.323952 L5.34947462,65.323952 L5.34947462,65.323952 C5.24846136,65.323952 5.15607063,65.3218393 5.07223551,65.3180686 Z" stroke="#FFFFFF" stroke-width="8.5"></path>
                        </g>
                    </g>
                </g>
            </g>
            <g id="Right" transform="translate(65.500000, 44.500000) scale(-1, 1) translate(-65.500000, -44.500000) translate(45.000000, 0.000000)">
                <mask id="mask-4" fill="white">
                    <use xlink:href="#path-3"></use>
                </mask>
                <g id="Mask"></g>
                <g mask="url(#mask-4)" id="Oval-3">
                    <g transform="translate(0.000000, 6.846260)">
                        <g>
                            <path d="M5.07223551,65.3180686 C5.07146842,65.246066 5.07206317,65.1682151 5.07425545,65.0845681 C5.10025534,64.0925355 5.33717481,62.675931 5.82340732,60.5925513 C6.10525469,59.3849087 7.35348043,54.4769321 7.56348498,53.618428 C9.37873361,46.1976439 10.2984169,40.3432937 10.2984169,33.9932749 C10.2984169,16.3421882 22.7286345,4.40024919 40.5587349,4.40024919 C57.5895241,4.40024919 70.5042169,18.5947583 70.5042169,37.0540554 C70.5042169,39.6130195 70.7336516,41.2348277 71.8744992,48.0051419 C72.1355044,49.5540671 72.3095853,50.6293928 72.4684719,51.6995515 C73.2352371,56.8639915 73.3498432,60.3726651 72.7302606,62.6996442 C72.2075979,64.6626193 71.3875719,65.323952 69.0507516,65.323952 L5.34947462,65.323952 L5.34947462,65.323952 C5.24846136,65.323952 5.15607063,65.3218393 5.07223551,65.3180686 Z" stroke="#FFFFFF" stroke-width="8.5"></path>
                        </g>
                    </g>
                </g>
            </g>
            <path d="M34,81 C35.3234041,85.759377 39.6887298,89.2521374 44.8698334,89.2521374 C50.050937,89.2521374 54.4162627,85.759377 55.7396668,81 L34,81 Z" id="Sphere" fill="#FFFFFF"></path>
            <circle id="Top" fill="#FFFFFF" cx="45" cy="7" r="6"></circle>
        </g>
    </g>
</svg>